<?xml version="1.0" encoding="UTF-8"?>
<svg xmlns="http://www.w3.org/2000/svg" viewBox="0 0 200 200">
	<defs>
		<style>
			* {
			stroke-linejoin: round;
			fill: none;
			stroke: #888;
			stroke-linecap: round;
			stroke-width: 14px;
			}
			.qm {
			stroke-width: 25px;
			}
			g { display: none; }
			g:target, g:last-of-type { display: block; }
			g:target ~ g { display: none }
		</style>
	</defs>
	<g id="http">
		<rect x="20" y="27" width="160" height="140" rx="18.5" ry="18.5"/>
		<path d="M20,64h160 M40,46h0 M56,46h0 M160,46h0 M160,84h0 M160,102v20 M160,148h0"/>
		<path d="M43 90 l-6 50 l48 -25Z"/>
		<path d="M 66 125 v22 h68 v-64 h-68 v18"/>
	</g>
	<g id="ws">
		<path d="M37,150q-3 -2,-7-12V55q0-20,20-20h100q20 0,20 20v80q0 20,-20 20h-50"/>
		<path d="M30 72 h140"/>
		<path d="M150 54 h0"/>
		<path d="M30,105 q-65 130, 70 26"/>
		<path d="M0 0 c 30 5, 30 20, 30 20 c 0 15, -30 20, -30 20 Z m 0 10 h -14 m 0 20 h 14"
			  transform=" translate(138 127) rotate(140)"/>
	</g>
	<g id="json">
		<path id="curly" d="M50 30h-5q-20 0,-20 20v40q-5 10,-10 10q5 0,10 10v40q0 20,20 20h5"/>
		<use href="#curly" transform="translate(200 0) scale(-1 1)"/>
		<path d="M 60 100 h 100" stroke-dasharray="1 40"/>
	</g>
	<g id="text">
		<path d="M 160 85 v 95 h -120 v -160 h 70 l 50 50 h -55 v-30 M 75 110 v -10 h 50 v 10 M 100 110 v 40 M 90 150 h 20" />
	</g>
	<g id="unknown">
		<path class="qm" d="M75,75c0-12,11.2-21,25-21s25,10,25,22-5,15-13,19c-7,3-11,10-12,14v5"/>
		<path class="qm" d="M100 147 h 0"/>
		<rect x="0" y="0" width="140" height="140" rx="16" ry="16" transform="translate(00 100) rotate(-45)"/>
	</g>
</svg>